#N canvas 12 34 229 186 10;
#X obj 13 127 hsl 200 15 -600 600 0 0 empty \$0-dev deviation_(cent)
-2 -8 0 10 -262130 -1 -1 19842 1;
#X obj 10 58 hradio 16 1 1 13 \$0-note empty target_note 0 25 0 10
-262130 -1 -1 0;
#X text 11 43 c;
#X text 44 43 d;
#X text 76 42 e;
#X text 92 43 f;
#X text 125 42 g;
#X text 158 43 a;
#X text 205 43 c;
#X text 108 115 |;
#X text 108 102 0;
#X obj 161 111 nbx 5 14 -600 600 0 0 empty \$0-dev empty 0 -8 0 10
-262130 -1 -1 596.484 256;
#X obj 13 158 hsl 200 15 -50 12 0 0 empty \$0-vol input_volume_(dB)
-2 -6 0 10 -262130 -1 -1 4577 1;
#X obj 172 76 nbx 4 14 400 500 0 1 \$0-root empty |> -15 6 0 10 -262130
-1 -1 440 256;
#X text 189 43 b;
#N canvas 251 34 265 223 (subpatch) 0;
#X obj 32 21 adc~;
#X obj 32 80 sigmund~;
#X obj 32 101 moses 0;
#X obj 99 137 mtof;
#X obj 117 19 r \$0-note;
#X obj 173 185 s \$0-vol;
#X obj 99 185 s \$0-dev;
#X obj 32 185 s \$0-err;
#X obj 180 19 r \$0-root;
#X obj 173 163 - 100;
#N canvas 99 224 463 422 tuning 0;
#X obj 47 43 inlet;
#X text 46 24 input in Hz;
#X obj 47 219 -;
#X obj 132 161 t b a;
#X obj 47 338 * 100;
#N canvas 0 22 221 299 fmod 0;
#X obj 41 26 inlet;
#X obj 67 134 int;
#X obj 40 106 t a a;
#X obj 39 164 -;
#X obj 40 79 / 12;
#X obj 40 188 * 12;
#X obj 39 244 outlet;
#X obj 41 52 + 12000;
#X connect 0 0 7 0;
#X connect 1 0 3 1;
#X connect 2 0 3 0;
#X connect 2 1 1 0;
#X connect 3 0 5 0;
#X connect 4 0 2 0;
#X connect 5 0 6 0;
#X connect 7 0 4 0;
#X restore 47 277 pd fmod 12;
#X obj 47 253 + 6;
#X obj 47 299 - 6;
#X text 158 200 rel to a;
#X text 73 255 half octave shift;
#X text 72 300 half octave shift back;
#X text 116 277 modulo octave;
#X text 87 340 to cents;
#X obj 47 371 outlet;
#X obj 284 43 inlet;
#X obj 132 44 inlet;
#X text 90 372 cents difference to target note;
#X text 282 24 tuning frq;
#X text 131 24 target note (rel to c);
#X obj 47 98 / 440;
#X obj 47 121 log;
#X obj 47 160 /;
#X obj 159 183 - 9;
#X obj 374 44 loadbang;
#X msg 374 67 2;
#X obj 374 88 log;
#X obj 374 108 / 12;
#X connect 0 0 19 0;
#X connect 2 0 6 0;
#X connect 3 0 2 0;
#X connect 3 1 22 0;
#X connect 4 0 13 0;
#X connect 5 0 7 0;
#X connect 6 0 5 0;
#X connect 7 0 4 0;
#X connect 14 0 19 1;
#X connect 15 0 3 0;
#X connect 19 0 20 0;
#X connect 20 0 21 0;
#X connect 21 0 2 0;
#X connect 22 0 2 1;
#X connect 23 0 24 0;
#X connect 24 0 25 0;
#X connect 25 0 26 0;
#X connect 26 0 21 1;
#X restore 99 163 pd tuning;
#N canvas 0 22 151 192 error 0;
#X msg 97 88 1;
#X obj 32 59 t b b;
#X obj 97 110 change;
#X msg 32 109 0;
#X obj 32 87 delay 50;
#X obj 32 25 inlet;
#X obj 32 145 outlet;
#X connect 0 0 2 0;
#X connect 1 0 4 0;
#X connect 1 1 0 0;
#X connect 2 0 6 0;
#X connect 3 0 6 0;
#X connect 4 0 3 0;
#X connect 5 0 1 0;
#X restore 32 136 pd error;
#X connect 0 0 1 0;
#X connect 0 1 1 0;
#X connect 1 0 2 0;
#X connect 1 1 9 0;
#X connect 2 0 11 0;
#X connect 2 1 3 0;
#X connect 3 0 10 0;
#X connect 4 0 10 1;
#X connect 8 0 10 2;
#X connect 9 0 5 0;
#X connect 10 0 6 0;
#X connect 11 0 7 0;
#X restore 72 13 pd;
#X obj 9 10 cnv 15 210 25 empty empty TUNER 8 12 0 14 -228856 -66577
0;
#X text 120 16 grrrr.org \, 2016;
